<svg width="24" height="24" viewBox="0 0 24 24" fill="none" xmlns="http://www.w3.org/2000/svg">
<g clip-path="url(#clip0_3_33)">
<path d="M18.5524 12.7238C18.5524 16.381 21.7524 17.5238 21.7524 17.6C21.7524 17.6762 21.219 19.2762 20.0762 20.9524C19.0857 22.4762 18.0952 23.9238 16.419 23.9238C14.819 23.9238 14.2857 23.0095 12.4571 23.0095C10.6286 23.0095 10.0952 23.9238 8.57143 23.9238C6.97143 24 5.75238 22.4 4.7619 20.9524C2.70476 17.981 1.10476 12.4952 3.23809 8.8381C4.30476 7.00952 6.20952 5.86667 8.19048 5.86667C9.79048 5.79048 11.2381 6.85714 12.1524 6.85714C13.0667 6.85714 14.8952 5.6381 16.7238 5.79048C17.5619 5.79048 19.6952 6.09524 21.1429 8.15238C20.9905 8.22857 18.4762 9.67619 18.5524 12.7238ZM15.5048 3.80952C16.3429 2.81905 16.9524 1.37143 16.8 0C15.581 0.0761905 14.1333 0.838095 13.219 1.82857C12.7853 2.32801 12.4543 2.90813 12.2452 3.53569C12.036 4.16324 11.9527 4.82591 12 5.48571C13.2952 5.6381 14.6667 4.8 15.5048 3.80952Z" fill="black"/>
</g>
<defs>
<clipPath id="clip0_3_33">
<rect width="24" height="24" fill="white"/>
</clipPath>
</defs>
</svg>
