<svg width="19" height="18" viewBox="0 0 19 18" fill="none" xmlns="http://www.w3.org/2000/svg">
<path d="M6.5 8.83125C6.54346 8.23232 6.80106 7.66905 7.22568 7.24443C7.6503 6.81981 8.21357 6.56221 8.8125 6.51875L9.94375 5.38125C9.30985 5.21434 8.64327 5.21651 8.01047 5.38754C7.37767 5.55857 6.80076 5.89248 6.33725 6.356C5.87373 6.81951 5.53982 7.39642 5.36879 8.02922C5.19776 8.66202 5.19559 9.3286 5.3625 9.9625L6.5 8.83125ZM18.3375 8.7875C17.6208 6.92075 16.3738 5.30439 14.75 4.1375L17.75 1.13125L16.8687 0.25L0.25 16.8687L1.13125 17.75L4.31875 14.5625C5.73992 15.3963 7.35253 15.8484 9 15.875C11.0372 15.7984 13.0073 15.1265 14.6667 13.9424C16.3262 12.7584 17.6024 11.114 18.3375 9.2125C18.3871 9.07518 18.3871 8.92482 18.3375 8.7875ZM11.5 9C11.4974 9.43756 11.3799 9.86677 11.1594 10.2447C10.9389 10.6227 10.6231 10.9361 10.2435 11.1538C9.8639 11.3714 9.43382 11.4856 8.99625 11.485C8.55868 11.4843 8.12894 11.3688 7.75 11.15L11.15 7.75C11.3747 8.12858 11.4954 8.55978 11.5 9ZM9 14.625C7.68879 14.6021 6.40243 14.2634 5.25 13.6375L6.8375 12.05C7.55959 12.551 8.43471 12.7825 9.31008 12.704C10.1855 12.6256 11.0055 12.2421 11.6269 11.6207C12.2484 10.9992 12.6318 10.1792 12.7103 9.30383C12.7888 8.42846 12.5573 7.55333 12.0562 6.83125L13.85 5.0375C15.2841 6.02186 16.4056 7.39714 17.0812 9C15.8125 12.1687 12.3125 14.625 9 14.625Z" fill="#343C44"/>
</svg>
