<svg width="18" height="18" viewBox="0 0 18 18" fill="none" xmlns="http://www.w3.org/2000/svg">
<g clip-path="url(#clip0_3_35)">
<path d="M17 18C17.5 18 18 17.6 18 17V1C18 0.5 17.6 0 17 0H1C0.4 0 0 0.4 0 1V17C0 17.5 0.4 18 1 18H17Z" fill="#3C5A99"/>
<path d="M12.4 18V11H14.7L15.1 8.3H12.4V6.6C12.4 5.8 12.6 5.3 13.7 5.3H15.1V2.8C14.9 2.8 14 2.7 13 2.7C11 2.7 9.6 4 9.6 6.3V8.3H7.3V11H9.6V18H12.4Z" fill="white"/>
</g>
<defs>
<clipPath id="clip0_3_35">
<rect width="18" height="18" fill="white"/>
</clipPath>
</defs>
</svg>
