<svg width="5" height="6" viewBox="0 0 5 6" fill="none" xmlns="http://www.w3.org/2000/svg">
<path d="M3.11158 2.9997L4.72253 1.39095C4.79307 1.32034 4.8327 1.22457 4.8327 1.1247C4.8327 1.02484 4.79307 0.929067 4.72253 0.858453C4.65198 0.787839 4.5563 0.748169 4.45653 0.748169C4.35677 0.748169 4.26109 0.787839 4.19054 0.858453L2.58334 2.47095L0.976147 0.858453C0.905601 0.787839 0.80992 0.748169 0.710154 0.748169C0.610387 0.748169 0.514706 0.787839 0.444161 0.858453C0.373615 0.929067 0.333983 1.02484 0.333983 1.1247C0.333983 1.22457 0.373615 1.32034 0.444161 1.39095L2.0551 2.9997L0.444161 4.60845C0.409047 4.64331 0.381176 4.68479 0.362156 4.73049C0.343136 4.77618 0.333344 4.8252 0.333344 4.8747C0.333344 4.92421 0.343136 4.97322 0.362156 5.01892C0.381176 5.06462 0.409047 5.10609 0.444161 5.14095C0.478988 5.1761 0.520424 5.204 0.566077 5.22304C0.61173 5.24207 0.660697 5.25188 0.710154 5.25188C0.75961 5.25188 0.808578 5.24207 0.854231 5.22304C0.899884 5.204 0.941319 5.1761 0.976147 5.14095L2.58334 3.52845L4.19054 5.14095C4.22537 5.1761 4.2668 5.204 4.31246 5.22304C4.35811 5.24207 4.40708 5.25188 4.45653 5.25188C4.50599 5.25188 4.55496 5.24207 4.60061 5.22304C4.64626 5.204 4.6877 5.1761 4.72253 5.14095C4.75764 5.10609 4.78551 5.06462 4.80453 5.01892C4.82355 4.97322 4.83334 4.92421 4.83334 4.8747C4.83334 4.8252 4.82355 4.77618 4.80453 4.73049C4.78551 4.68479 4.75764 4.64331 4.72253 4.60845L3.11158 2.9997Z" fill="#F11010"/>
</svg>
