<svg width="13" height="10" viewBox="0 0 13 10" fill="none" xmlns="http://www.w3.org/2000/svg">
<path fill-rule="evenodd" clip-rule="evenodd" d="M12.2965 0.828496C12.4013 0.932999 12.4844 1.05714 12.5411 1.19382C12.5978 1.3305 12.627 1.47702 12.627 1.625C12.627 1.77297 12.5978 1.9195 12.5411 2.05617C12.4844 2.19285 12.4013 2.31699 12.2965 2.4215L5.54652 9.1715C5.44202 9.27626 5.31787 9.35938 5.18119 9.4161C5.04452 9.47281 4.89799 9.50201 4.75002 9.50201C4.60204 9.50201 4.45552 9.47281 4.31884 9.4161C4.18217 9.35938 4.05802 9.27626 3.95352 9.1715L0.578518 5.7965C0.47392 5.6919 0.390948 5.56772 0.33434 5.43106C0.277732 5.2944 0.248596 5.14792 0.248596 5C0.248596 4.85207 0.277732 4.7056 0.33434 4.56893C0.390948 4.43227 0.47392 4.30809 0.578518 4.2035C0.683115 4.0989 0.807291 4.01593 0.943955 3.95932C1.08062 3.90271 1.22709 3.87357 1.37502 3.87357C1.52294 3.87357 1.66942 3.90271 1.80608 3.95932C1.94274 4.01593 2.06692 4.0989 2.17152 4.2035L4.75002 6.78425L10.7035 0.828496C10.808 0.723729 10.9322 0.640607 11.0688 0.583893C11.2055 0.527178 11.352 0.497986 11.5 0.497986C11.648 0.497986 11.7945 0.527178 11.9312 0.583893C12.0679 0.640607 12.192 0.723729 12.2965 0.828496Z" fill="white"/>
</svg>
