<svg width="60" height="42" viewBox="0 0 60 42" fill="none" xmlns="http://www.w3.org/2000/svg">
<path d="M16.5225 5.5325C20.2706 2.30051 25.0509 0.515519 30 0.5C40.0875 0.5 48.4613 8 49.3725 17.6712C55.3425 18.515 60 23.5137 60 29.6487C60 36.3837 54.3825 41.75 47.5763 41.75H14.1787C6.405 41.75 0 35.6225 0 27.9425C0 21.3312 4.7475 15.8562 11.0325 14.4687C11.5687 11.2325 13.65 8.0075 16.5225 5.5325V5.5325ZM18.9713 8.37125C16.1325 10.82 14.6475 13.7713 14.6475 16.0813V17.7613L12.9787 17.945C7.74 18.5187 3.75 22.82 3.75 27.9425C3.75 33.4437 8.3625 38 14.1787 38H47.5763C52.425 38 56.25 34.205 56.25 29.6487C56.25 25.0887 52.425 21.2938 47.5763 21.2938H45.7013V19.4188C45.705 11.0938 38.73 4.25 30 4.25C25.9495 4.26618 22.0382 5.72913 18.9713 8.375V8.37125Z" fill="#884CB2"/>
</svg>
