<svg width="22" height="16" viewBox="0 0 22 16" fill="none" xmlns="http://www.w3.org/2000/svg">
<path fill-rule="evenodd" clip-rule="evenodd" d="M20.8275 1.04749C21.0021 1.22166 21.1406 1.42857 21.2352 1.65637C21.3297 1.88416 21.3783 2.12837 21.3783 2.37499C21.3783 2.62162 21.3297 2.86583 21.2352 3.09362C21.1406 3.32141 21.0021 3.52832 20.8275 3.70249L9.57749 14.9525C9.40332 15.1271 9.19641 15.2656 8.96861 15.3602C8.74082 15.4547 8.49662 15.5033 8.24999 15.5033C8.00336 15.5033 7.75916 15.4547 7.53136 15.3602C7.30357 15.2656 7.09666 15.1271 6.92249 14.9525L1.29749 9.32749C1.12316 9.15316 0.984873 8.94621 0.890526 8.71843C0.796179 8.49066 0.74762 8.24653 0.74762 7.99999C0.74762 7.75345 0.796179 7.50933 0.890526 7.28156C0.984873 7.05378 1.12316 6.84682 1.29749 6.67249C1.47182 6.49816 1.67878 6.35988 1.90655 6.26553C2.13432 6.17118 2.37845 6.12262 2.62499 6.12262C2.87153 6.12262 3.11565 6.17118 3.34343 6.26553C3.5712 6.35988 3.77816 6.49816 3.95249 6.67249L8.24999 10.9737L18.1725 1.04749C18.3467 0.872882 18.5536 0.734345 18.7814 0.639821C19.0092 0.545297 19.2534 0.496643 19.5 0.496643C19.7466 0.496643 19.9908 0.545297 20.2186 0.639821C20.4464 0.734345 20.6533 0.872882 20.8275 1.04749Z" fill="#24272C"/>
</svg>
